<?xml version="1.0" encoding="utf-8"?>
<!-- Generator: Adobe Illustrator 23.0.0, SVG Export Plug-In . SVG Version: 6.00 Build 0)  -->
<svg version="1.1" id="Layer_1" xmlns="http://www.w3.org/2000/svg" xmlns:xlink="http://www.w3.org/1999/xlink" x="0px" y="0px"
	 viewBox="0 0 532.03 199.94" style="enable-background:new 0 0 532.03 199.94;" xml:space="preserve">
<style type="text/css">
	.st0{fill:#FFFFFF;stroke:#000000;stroke-width:5;stroke-miterlimit:10;}
</style>
<path d="M125.34,170.51v18.75H12.36V22.84h110.86v18.75H33.46V95.5h78.05v17.58H33.46v57.42H125.34z"/>
<path d="M165.84,22.84l55.08,139.93l54.85-139.93h22.27l-67.97,166.41h-18.28L143.57,22.84H165.84z"/>
<path d="M372.55,22.84h17.81l67.97,166.41h-22.5l-19.69-48.75h-69.85l-19.45,48.75h-22.5L372.55,22.84z M411.45,124.1l-30-76.88
	l-30.94,76.88H411.45z"/>
<path d="M484.58,189.26V22.84h21.1v166.41H484.58z"/>
<line class="st0" x1="505.67" y1="10.68" x2="366.78" y2="10.68"/>
<line class="st0" x1="299.32" y1="44.6" x2="299.32" y2="183.5"/>
</svg>
